<?xml version="1.0" encoding="utf-8"?>
<svg version="1.1" id="Livello_1" xmlns="http://www.w3.org/2000/svg" xmlns:xlink="http://www.w3.org/1999/xlink" x="0px" y="0px"
	 viewBox="0 0 450 450" style="enable-background:new 0 0 450 450;" xml:space="preserve">
<style type="text/css">
	.st0{display:none;fill-rule:evenodd;clip-rule:evenodd;}
	.st1{fill-rule:evenodd;clip-rule:evenodd;}
	.st2{fill-rule:evenodd;clip-rule:evenodd;fill:#FFFFFF;}
	.st3{fill-rule:evenodd;clip-rule:evenodd;fill:#DB3A34;}
</style>
<g>
	<rect class="st0" width="450" height="450"/>
	<path class="st1" d="M420,450H30c-16.5,0-30-13.5-30-30V30C0,13.5,13.5,0,30,0h390c16.5,0,30,13.5,30,30v390
		C450,436.5,436.5,450,420,450z"/>
	<path class="st2" d="M399.375,405H50.625c-3.09375,0-5.625-2.53125-5.625-5.625V50.625C45,47.53125,47.53125,45,50.625,45h348.75
		c3.09375,0,5.625,2.53125,5.625,5.625v348.75C405,402.46875,402.46875,405,399.375,405z"/>
</g>
<g>
	<path class="st1" d="M298.125,309.375h-146.25c-6.1875,0-11.25-5.0625-11.25-11.25v-146.25c0-6.1875,5.0625-11.25,11.25-11.25
		h146.25c6.1875,0,11.25,5.0625,11.25,11.25v146.25C309.375,304.3125,304.3125,309.375,298.125,309.375z"/>
	<path class="st2" d="M283.5,292.5h-117c-4.9499969,0-9-4.0499878-9-9v-117c0-4.9499969,4.0500031-9,9-9h117
		c4.9500122,0,9,4.0500031,9,9v117C292.5,288.4500122,288.4500122,292.5,283.5,292.5z"/>
	<path class="st3" d="M254.25,258.75h-58.5c-2.4750061,0-4.5-2.0249939-4.5-4.5v-58.5c0-2.4750061,2.0249939-4.5,4.5-4.5h58.5
		c2.4750061,0,4.5,2.0249939,4.5,4.5v58.5C258.75,256.7250061,256.7250061,258.75,254.25,258.75z"/>
</g>
<g>
	<g>
		<path class="st1" d="M399.9375,368.4375h-29.25c-1.2374878,0-2.25-1.0125122-2.25-2.25v-29.25
			c0-1.2374878,1.0125122-2.25,2.25-2.25h29.25c1.2374878,0,2.25,1.0125122,2.25,2.25v29.25
			C402.1875,367.4249878,401.1749878,368.4375,399.9375,368.4375z"/>
		<path class="st1" d="M366.1875,402.1875h-29.25c-1.2374878,0-2.25-1.0125122-2.25-2.25v-29.25
			c0-1.2374878,1.0125122-2.25,2.25-2.25h29.25c1.2374878,0,2.25,1.0125122,2.25,2.25v29.25
			C368.4375,401.1749878,367.4249878,402.1875,366.1875,402.1875z"/>
		<path class="st1" d="M366.1875,334.6875h-29.25c-1.2374878,0-2.25-1.0125122-2.25-2.25v-29.25
			c0-1.2374878,1.0125122-2.25,2.25-2.25h29.25c1.2374878,0,2.25,1.0125122,2.25,2.25v29.25
			C368.4375,333.6749878,367.4249878,334.6875,366.1875,334.6875z"/>
		<path class="st1" d="M399.9375,300.9375h-29.25c-1.2374878,0-2.25-1.0125122-2.25-2.25v-29.25
			c0-1.2374878,1.0125122-2.25,2.25-2.25h29.25c1.2374878,0,2.25,1.0125122,2.25,2.25v29.25
			C402.1875,299.9249878,401.1749878,300.9375,399.9375,300.9375z"/>
		<path class="st1" d="M332.4375,368.4375h-29.25c-1.2374878,0-2.25-1.0125122-2.25-2.25v-29.25
			c0-1.2374878,1.0125122-2.25,2.25-2.25h29.25c1.2374878,0,2.25,1.0125122,2.25,2.25v29.25
			C334.6875,367.4249878,333.6749878,368.4375,332.4375,368.4375z"/>
		<path class="st1" d="M298.6875,402.1875h-29.25c-1.2374878,0-2.25-1.0125122-2.25-2.25v-29.25
			c0-1.2374878,1.0125122-2.25,2.25-2.25h29.25c1.2374878,0,2.25,1.0125122,2.25,2.25v29.25
			C300.9375,401.1749878,299.9249878,402.1875,298.6875,402.1875z"/>
	</g>
	<g>
		<path class="st1" d="M50.0625,81.5625h29.25c1.2375031,0,2.25,1.0124969,2.25,2.25v29.25c0,1.2375031-1.0124969,2.25-2.25,2.25
			h-29.25c-1.2374992,0-2.25-1.0124969-2.25-2.25v-29.25C47.8125,82.5749969,48.8250008,81.5625,50.0625,81.5625z"/>
		<path class="st1" d="M83.8125,47.8125h29.25c1.2375031,0,2.25,1.0125008,2.25,2.25v29.25c0,1.2375031-1.0124969,2.25-2.25,2.25
			h-29.25c-1.2375031,0-2.25-1.0124969-2.25-2.25v-29.25C81.5625,48.8250008,82.5749969,47.8125,83.8125,47.8125z"/>
		<path class="st1" d="M83.8125,115.3125h29.25c1.2375031,0,2.25,1.0124969,2.25,2.25v29.25c0,1.2375031-1.0124969,2.25-2.25,2.25
			h-29.25c-1.2375031,0-2.25-1.0124969-2.25-2.25v-29.25C81.5625,116.3249969,82.5749969,115.3125,83.8125,115.3125z"/>
		<path class="st1" d="M50.0625,149.0625h29.25c1.2375031,0,2.25,1.0124969,2.25,2.25v29.25c0,1.2375031-1.0124969,2.25-2.25,2.25
			h-29.25c-1.2374992,0-2.25-1.0124969-2.25-2.25v-29.25C47.8125,150.0749969,48.8250008,149.0625,50.0625,149.0625z"/>
		<path class="st1" d="M117.5625,81.5625h29.25c1.2375031,0,2.25,1.0124969,2.25,2.25v29.25c0,1.2375031-1.0124969,2.25-2.25,2.25
			h-29.25c-1.2375031,0-2.25-1.0124969-2.25-2.25v-29.25C115.3125,82.5749969,116.3249969,81.5625,117.5625,81.5625z"/>
		<path class="st1" d="M151.3125,47.8125h29.25c1.2375031,0,2.25,1.0125008,2.25,2.25v29.25c0,1.2375031-1.0124969,2.25-2.25,2.25
			h-29.25c-1.2375031,0-2.25-1.0124969-2.25-2.25v-29.25C149.0625,48.8250008,150.0749969,47.8125,151.3125,47.8125z"/>
	</g>
</g>
</svg>
