<?xml version="1.0" standalone="no"?>
<!DOCTYPE svg PUBLIC "-//W3C//DTD SVG 20010904//EN"
 "http://www.w3.org/TR/2001/REC-SVG-20010904/DTD/svg10.dtd">
<svg version="1.0" xmlns="http://www.w3.org/2000/svg"
 width="512.000000pt" height="512.000000pt" viewBox="0 0 512.000000 512.000000"
 preserveAspectRatio="xMidYMid meet">
<metadata>
Created by potrace 1.11, written by Peter Selinger 2001-2013
</metadata>
<g transform="translate(0.000000,512.000000) scale(0.100000,-0.100000)"
fill="#000000" stroke="none">
<path d="M228 5102 c-101 -37 -178 -114 -212 -215 -15 -43 -16 -250 -16 -2332
l0 -2284 21 -58 c16 -43 37 -74 83 -119 106 -104 -164 -94 2466 -94 l2307 0
61 30 c70 36 124 91 158 164 l24 51 0 2306 c0 2629 10 2359 -94 2465 -45 46
-76 67 -119 83 l-58 21 -2287 0 c-2131 -1 -2290 -2 -2334 -18z"/>
</g>
</svg>
